<svg xmlns="http://www.w3.org/2000/svg" width="1150" height="541.544" viewBox="0 0 1150 541.544">
  <g id="Group_2" data-name="Group 2" transform="translate(-332 -277.456)">
    <g id="Path_2" data-name="Path 2" transform="translate(332 302)" fill="#3d3357">
      <path d="M 1149.5 516.5 L 0.5 516.5 L 0.5 0.5 L 1149.5 0.5 L 1149.5 439.4022827148438 L 1149.5 516.5 Z" stroke="none"/>
      <path d="M 1 1 L 1 516 L 1149 516 L 1149 1 L 1 1 M 0 0 L 1150 0 L 1150 517 L 0 517 L 0 0 Z" stroke="none" fill="#707070"/>
    </g>
    <g id="Group_1" data-name="Group 1" transform="translate(694.254 484.868) rotate(10)">
      <path id="Path_1" data-name="Path 1" d="M80.134-349.868c0,30.756,10.769,52.784,50.719,67.012s78.549,1.245,117.27,8.688,38.72,55.4,75.185,84.9,112.657,68.681,175.171,38.743c17.066-8.173,26.585-26.347,31.033-49.328,11.817-61.062-12.374-155.986-25.953-185.951-18.679-41.216,13.309-16.614-159.406-16.614S80.134-380.623,80.134-349.868ZM-403.2-114.321c13.123,28.713,32.575,46.036,75.942,47.295s73.862-22.481,113.187-27.186,59.785,40.061,106.418,56.635,121.468.124,167.056-46.643,42.221-120.555,7.2-153.412-84.494-57.2-245.74-5.212S-416.32-143.033-403.2-114.321ZM-514-466.455c0,30.756,10.769,52.783,50.719,67.012s78.549,1.245,117.27,8.688,38.72,55.4,75.185,84.9,113.348,36.677,175.862,6.739,90.853-99.84,72.175-141.056S-77.266-519-249.983-519-514-497.21-514-466.455Z" transform="matrix(0.978, -0.208, 0.208, 0.978, 307.098, 280.801)" fill="#4b3f6b" fill-rule="evenodd"/>
    </g>
  </g>
</svg>
